<svg width="27" height="27" viewBox="0 0 27 27" fill="none" xmlns="http://www.w3.org/2000/svg">
<path d="M25.0214 20.5504C24.0998 19.6219 21.8678 18.2669 20.7848 17.7208C19.3746 17.0105 19.2585 16.9525 18.15 17.7759C17.4107 18.3255 16.9191 18.8164 16.0538 18.6319C15.1885 18.4474 13.3081 17.4068 11.6617 15.7657C10.0152 14.1246 8.91427 12.1898 8.72914 11.3275C8.54401 10.4651 9.04311 9.97939 9.58748 9.23833C10.3547 8.19376 10.2967 8.01967 9.64087 6.6095C9.12958 5.5127 7.73499 3.3017 6.80294 2.3848C5.80589 1.40001 5.80589 1.5741 5.16344 1.84105C4.64041 2.0611 4.13863 2.32858 3.66439 2.64014C2.73582 3.25702 2.22046 3.76944 1.86006 4.53951C1.49966 5.30959 1.33774 7.11495 3.19894 10.4959C5.06014 13.8768 6.36593 15.6055 9.06864 18.3005C11.7714 20.9955 13.8496 22.4446 16.8878 24.1484C20.6461 26.2532 22.0877 25.8429 22.8602 25.4831C23.6326 25.1233 24.1474 24.6126 24.7655 23.6841C25.0779 23.2107 25.346 22.7095 25.5664 22.1869C25.8339 21.5468 26.008 21.5468 25.0214 20.5504Z" stroke="#CDA274" stroke-width="2" stroke-miterlimit="10"/>
</svg>
